<!-- Optimized with https://jakearchibald.github.io/svgomg/ -->
<svg xmlns="http://www.w3.org/2000/svg" width="129" height="41">
  <path fill-rule="evenodd" d="M127.508 34.809c-.754-.375-1.517-.751-2.271-1.127-.24-.716-.728-2.158-.967-2.874 1.082-1.354 2.998-1.756 4.373-.516.932 1.617-.053 3.286-1.135 4.517zm-14.71-5.382c-1.845 2.263-4.036 4.308-6.529 5.863-3.114.874-6.92-2.778-5.341-5.889 1.189-2.831 2.2-5.924 4.232-8.283 2.99-1.144 5.625 2.097 8.339 3.111.08 1.127.16 2.263.249 3.39 3.043.769 6.059-.393 8.845-1.503-.275 4.535-6.486 4.779-9.795 3.311zm-4.923-5.39c-2.307 2.219-3.451 5.251-4.241 8.274 2.635-.49 5.554-1.905 6.308-4.657-.258-1.407-1.287-2.473-2.067-3.617zM93.414 35.989c-2.378-3.643-1.296-8.117-1.109-12.153-3.567 2.63-5.891 6.491-9.298 9.278a18.381 18.381 0 0 1-2.67-1.904c-2.467 1.974-4.986 4.744-8.499 4.272-2.023-.62-2.591-2.734-2.795-4.561-2.502 2.604-6.033 6.23-9.989 4.85-3.167-1.031-2.689-4.946-1.535-7.322-1.189 1.922-3.061 3.241-4.649 4.823-2.795 2.726-5.633 5.548-9.28 7.156-2.91-.472-5.305-2.77-4.932-5.828-.391-3.652 2.484-6.483 3.291-9.698-2.892-.254-4.152 5.382-7.94 4.22 1.765-2.062 3.717-3.958 5.456-6.047-2.316-2.219-1.322-5.679.39-7.933a29.765 29.765 0 0 1 4.525 3.748c-.55 1.494-1.171 2.988-2.28 4.185 1.49 1.337 2.999 2.674 4.152 4.317-1.792 3.276-3.948 6.657-4.037 10.484 2.626-1.066 4.578-3.163 6.849-4.77 2.644-2.045 5.545-3.801 8.029-6.038.985-2.315 1.57-4.805 2.812-7.016 1.109-2.079 4.383.455 3.478 2.316-1.26 3.958-3.921 7.514-4.046 11.812 5.066-1.957 8.056-6.911 11.729-10.624 1.322.716 2.307 1.826 3.149 3.023-.949 2.281-2.306 4.543-2.058 7.103 3.54-.559 6.024-3.32 8.694-5.408.79-3.451 2.014-6.771 3.248-10.083.824.184 2.484.551 3.309.734a38.151 38.151 0 0 1-1.393 6.116c2.253-1.887 4.773-3.407 7.248-4.971 1.153.192 2.298.376 3.451.55 1.277 4.098-1.313 8.143-1.215 12.302-.657 2.403 1.277 4.168 3.247 5.129-2.014.62-4.401-.122-5.332-2.062zM40.911 19.86c-.905.621-.169 3.224.87 1.791.727-.672.354-3.04-.87-1.791zm-6.876 3.408c.089 5.495-5.216 8.597-9.066 11.585-2.671 2.254-6.29 2.674-9.245 4.43a74.397 74.397 0 0 1-4.196-.105c.142.288.417.874.559 1.162-2.546-.367-5.27-.576-7.621.655a14.411 14.411 0 0 1-3.451-2.175l1.1-2.263c.976.839 1.845 2.097 3.292 2.088 3.22-.393 6.44-1.223 9.226-2.909 3.744-2.359 7.949-4.107 11.116-7.27 2.201-1.904 3.859-4.858 3.247-7.793-1.543-2.56-5.083-2.447-7.718-2.621-5.376-.551-9.759 2.918-14.487 4.788-1.411 2.044-1.677 4.578-2.272 6.928.098.463.293 1.407.391 1.879.337.34 1.011 1.004 1.348 1.345-1.268-.07-2.945.332-3.291-1.31-1.331-2.805-.825-6.02-.763-9.008a166.55 166.55 0 0 0-1.446-1.949c.754-.463 1.499-.935 2.253-1.398 1.34-4.534 2.546-9.375 5.563-13.158 0-.201.017-.603.017-.813-2.803.778-5.633 2.141-8.579.97V5.103C5.309 2.858 10.854.665 16.753 1.014c4.064.017 9.041 1.433 10.46 5.662-.372 3.372-3.061 5.731-5.536 7.802 5.11.682 12.003 2.7 12.358 8.79zM23.611 5.182c-3.353-2.019-7.567-.184-11.214-.009-.905 3.801-1.605 7.662-3.096 11.297 3.78-.708 7.843-1.197 10.691-4.036 1.969-1.722 5.615-4.395 3.619-7.252z"/>
</svg>