<!-- Optimized with https://jakearchibald.github.io/svgomg/ -->
<svg xmlns="http://www.w3.org/2000/svg" width="149" height="25">
  <path fill-rule="evenodd" d="M141.241 24.994c-3.809 0-6.812-2.365-6.812-8.1 0-5.75 3.003-8.129 6.812-8.129 3.808 0 6.811 2.379 6.811 8.129 0 5.735-3.003 8.1-6.811 8.1zm0-15.63c-2.271 0-3.897 2.174-3.897 7.53 0 5.341 1.626 7.501 3.897 7.501 2.285 0 3.896-2.16 3.896-7.501 0-5.356-1.611-7.53-3.896-7.53zM125.098 24.57v-.627c1.655 0 2.285-.482 2.285-2.145v-9.355c0-1.795-.542-2.641-2.285-2.641v-.628c.63.058 1.26.088 1.861.088 1.171 0 2.255-.117 3.12-.409v12.945c0 1.663.629 2.145 2.285 2.145v.627c-.689-.029-2.256-.116-3.633-.116-1.377 0-2.944.087-3.633.116zm3.428-19.044a1.922 1.922 0 0 1-1.919-1.912c0-1.036.864-1.912 1.919-1.912 1.04 0 1.919.876 1.919 1.912 0 1.051-.879 1.912-1.919 1.912zm-9.903 19.38V22.25c-.732 1.78-2.182 2.744-4.262 2.744-3.75 0-6.153-2.671-6.123-8.1-.03-5.443 3.178-8.129 6.782-8.129 1.421 0 2.827.497 3.603 1.766V4.723c0-1.795-.541-2.627-2.285-2.627v-.627c.63.058 1.26.087 1.861.087 1.172 0 2.256-.117 3.12-.423v20.183c0 1.795.542 2.627 2.285 2.627v.627a20.45 20.45 0 0 0-1.86-.087c-1.172 0-2.256.117-3.121.423zm0-13.149c-.585-1.62-1.801-2.306-3.354-2.306-2.373 0-4.146 2.394-4.116 7.443-.03 4.831 1.406 7.195 4.072 7.195 1.509 0 2.93-1.182 3.398-3.444v-8.888zm-17.46 13.178v-3.531c-1.026 2.597-3.003 3.59-4.922 3.59-1.407 0-2.432-.424-3.12-1.139-.747-.802-.996-2.028-.996-3.911v-7.501c0-1.795-.528-2.641-2.271-2.641v-.628c.63.058 1.26.088 1.86.088 1.172 0 2.242-.117 3.12-.409v11.748c0 1.853.118 3.429 2.271 3.429 2.344 0 4.058-2.364 4.058-5.414v-6.173c0-1.795-.542-2.641-2.286-2.641v-.628c.63.058 1.26.088 1.861.088 1.172 0 2.256-.117 3.12-.409v12.492c0 1.795.542 2.627 2.285 2.627v.628c-.63-.059-1.26-.088-1.86-.088-1.172 0-2.256.117-3.12.423zM101 2.366l-5 3.985 2.676-5.333c.049-.181.133-.346.246-.489L99 .374l.034.021C99.283.151 99.623 0 100 0c.759 0 1.375.613 1.375 1.37 0 .372-.15.709-.392.956l.017.04zM85.767 24.994c-1.377 0-2.182-.336-2.842-.993-.879-.89-1.172-2.057-1.172-4.188V9.802h-2.885v-.599h2.885V4.635c.982-.029 1.949-.146 2.696-.423v4.991h4.438v.599h-4.438v11.572c0 1.883.718 2.54 1.919 2.54s2.08-.861 2.71-3.196l.586.146c-.411 2.335-1.465 4.13-3.897 4.13zm-8.481-5.677c0 3.794-2.886 5.677-6.373 5.677-2.123 0-3.237-.57-4.101-1.11-.483-.306-.776-.423-1.025-.423-.381 0-.542.453-.66 1.314h-.688c.088-1.226.117-2.948.117-7.166h.689c.249 3.619 1.626 6.786 5.463 6.786 1.949 0 3.897-1.167 3.897-3.984 0-2.422-1.89-3.794-4.673-5.458-2.856-1.707-5.347-3.327-5.347-6.698 0-3.532 2.681-5.181 5.64-5.181 1.978 0 2.857.569 3.662 1.109.484.306.747.423 1.026.423.38 0 .541-.452.659-1.313h.688c-.088 1.05-.146 2.335-.146 6.1h-.689c-.219-2.846-1.596-5.75-4.922-5.75-2.138 0-3.662 1.416-3.662 3.473 0 2.715 2.344 3.795 5.039 5.473 3.12 1.941 5.406 3.517 5.406 6.728zM47.154 24.57v-.627c1.655 0 2.285-.482 2.285-2.145v-9.355c0-1.795-.542-2.641-2.285-2.641v-.628c.63.058 1.26.088 1.86.088 1.172 0 2.256-.117 3.12-.409v12.945c0 1.663.63 2.145 2.285 2.145v.627c-.688-.029-2.255-.116-3.632-.116-1.377 0-2.945.087-3.633.116zm3.428-19.044a1.923 1.923 0 0 1-1.92-1.912c0-1.036.865-1.912 1.92-1.912 1.039 0 1.919.876 1.919 1.912 0 1.051-.88 1.912-1.919 1.912zm-6.329 6.348l-4.921 12.842h-.498L33.311 11.48c-.659-1.562-1.318-1.678-1.743-1.678v-.628c.776.058 1.611.117 2.637.117 1.23 0 2.695-.029 3.896-.117v.628c-1.143 0-2.124 0-2.124 1.021 0 .336.103.759.322 1.314l3.692 9.091 3.31-8.639c.22-.555.323-1.022.323-1.387 0-.933-.689-1.328-2.212-1.43v-.598c1.04.058 1.582.088 2.519.088.923 0 1.641-.03 2.271-.088v.598c-.747.088-1.377.57-1.949 2.102zM25.445 23.738c1.802 0 3.369-.758 4.409-2.991l.601.233c-.659 2-2.637 4.014-5.611 4.014-4.35 0-6.899-3.167-6.899-7.75 0-5.253 2.666-8.479 6.782-8.479 3.516 0 5.61 2.058 5.61 6.568h-9.375a15.743 15.743 0 0 0-.102 1.911c0 4.101 2.285 6.494 4.585 6.494zm2.007-8.975c.102-2.918-.835-5.428-2.842-5.428-1.787 0-3.369 1.663-3.691 5.428h6.533zm-18.56 9.72c-1.802 0-5.757 0-8.701.087v-.598c2.036-.088 2.432-.394 2.432-2.568V6.576c0-2.174-.396-2.481-2.432-2.568v-.599c.835.059 2.285.088 3.838.088 1.377 0 2.885-.029 3.808-.088v.599c-2.036.087-2.431.394-2.431 2.568v14.828c0 2.174.395 2.48 2.431 2.48h2.198c3.75 0 4.497-1.43 4.922-5.589h.688a27.993 27.993 0 0 0-.088 2.452c0 .744.059 2.306.205 3.823-2.036-.087-4.863-.087-6.87-.087z"/>
</svg>